<svg width="184" height="34" viewBox="0 0 184 34" fill="none" xmlns="http://www.w3.org/2000/svg">
<path opacity="0.1" fill-rule="evenodd" clip-rule="evenodd" d="M0 17C0 7.61116 7.61116 0 17 0C26.3888 0 34 7.61116 34 17C34 26.3888 26.3888 34 17 34C7.61116 34 0 26.3888 0 17Z" fill="white"/>
<path fill-rule="evenodd" clip-rule="evenodd" d="M26.0667 16.9874C26.0667 17.6006 26.0043 18.2129 25.8816 18.8098C25.7621 19.3925 25.585 19.9645 25.353 20.5114C25.1264 21.0486 24.8452 21.5662 24.5167 22.049C24.1931 22.5287 23.8203 22.9787 23.4108 23.389C23.0004 23.7974 22.5488 24.1692 22.0693 24.4942C21.585 24.8204 21.0666 25.1012 20.5291 25.3289C19.9814 25.5596 19.408 25.7365 18.8258 25.8558C18.2282 25.9788 17.6137 26.0415 16.9996 26.0415C16.3851 26.0415 15.7706 25.9788 15.1738 25.8558C14.5907 25.7365 14.0174 25.5596 13.4702 25.3289C12.9327 25.1012 12.4138 24.8204 11.9295 24.4942C11.45 24.1693 10.9984 23.7974 10.5889 23.389C10.1789 22.9787 9.80611 22.5287 9.48204 22.049C9.1553 21.5662 8.87371 21.0485 8.64616 20.5114C8.41414 19.9645 8.23663 19.3924 8.11664 18.8098C7.99535 18.2129 7.93335 17.6006 7.93335 16.9874C7.93335 16.3738 7.99531 15.7602 8.11668 15.1647C8.23666 14.582 8.41417 14.009 8.64619 13.4631C8.87374 12.9255 9.15534 12.4074 9.48207 11.9246C9.80615 11.4445 10.1789 10.9953 10.5889 10.5846C10.9984 10.1761 11.45 9.80518 11.9295 9.48069C12.4138 9.15308 12.9327 8.87239 13.4702 8.64424C14.0174 8.41298 14.5907 8.23573 15.1738 8.11727C15.7706 7.99526 16.3851 7.93335 16.9996 7.93335C17.6137 7.93335 18.2282 7.99526 18.8259 8.11727C19.4081 8.23577 19.9814 8.41302 20.5291 8.64424C21.0666 8.87235 21.585 9.15308 22.0693 9.48069C22.5488 9.80518 23.0004 10.1761 23.4108 10.5846C23.8203 10.9953 24.1931 11.4445 24.5168 11.9246C24.8452 12.4074 25.1264 12.9255 25.353 13.4631C25.585 14.009 25.7621 14.582 25.8816 15.1647C26.0043 15.7602 26.0667 16.3738 26.0667 16.9874ZM13.6959 9.99394C11.5367 11.0121 9.92515 12.9989 9.42264 15.3932C9.62677 15.395 12.8534 15.4357 16.571 14.4494C15.2309 12.0718 13.7991 10.1315 13.6959 9.99394ZM17.2125 15.64C13.2257 16.8318 9.40007 16.746 9.26283 16.7408C9.2606 16.8239 9.25662 16.9043 9.25662 16.9874C9.25662 18.9737 10.007 20.7845 11.2405 22.1537C11.2378 22.1497 13.3568 18.3959 17.5353 17.0467C17.6362 17.0131 17.7389 16.983 17.8407 16.9538C17.6464 16.5144 17.4343 16.0741 17.2125 15.64ZM22.1131 11.1845C20.7499 9.9842 18.96 9.25612 16.9996 9.25612C16.3705 9.25612 15.7599 9.33217 15.1751 9.47275C15.2911 9.62838 16.7455 11.555 18.0696 13.9829C20.9913 12.8892 22.0941 11.2128 22.1131 11.1845ZM18.3685 18.235C18.3513 18.2407 18.334 18.2457 18.3172 18.2518C13.7487 19.8422 12.2568 23.0471 12.2407 23.0821C13.5552 24.1029 15.2039 24.7188 16.9996 24.7188C18.0719 24.7188 19.0933 24.5008 20.0226 24.106C19.9079 23.4305 19.4581 21.0627 18.3685 18.235ZM21.3264 23.3996C23.065 22.228 24.2997 20.3677 24.6442 18.2129C24.4848 18.1616 22.3185 17.4768 19.8193 17.8769C20.8349 20.6639 21.2476 22.9336 21.3264 23.3996ZM18.6656 15.1351C18.8453 15.5038 19.0194 15.8791 19.1801 16.2562C19.2372 16.3915 19.293 16.5241 19.3474 16.6567C22.0073 16.3225 24.6279 16.8848 24.7399 16.9078C24.7222 15.0749 24.0656 13.3927 22.9792 12.0758C22.9646 12.0965 21.7227 13.8883 18.6656 15.1351Z" fill="white"/>
<path opacity="0.1" fill-rule="evenodd" clip-rule="evenodd" d="M50 17C50 7.61116 57.6112 0 67 0C76.3888 0 84 7.61116 84 17C84 26.3888 76.3888 34 67 34C57.6112 34 50 26.3888 50 17Z" fill="white"/>
<path fill-rule="evenodd" clip-rule="evenodd" d="M66.4909 13.8178L66.5265 14.4061L65.932 14.334C63.7678 14.0579 61.8771 13.1215 60.2718 11.5489L59.487 10.7686L59.2848 11.3448C58.8567 12.6293 59.1302 13.9859 60.0221 14.8983C60.4977 15.4025 60.3907 15.4745 59.5702 15.1744C59.2848 15.0783 59.0351 15.0063 59.0113 15.0423C58.9281 15.1264 59.2135 16.2188 59.4394 16.651C59.7486 17.2512 60.3788 17.8395 61.0685 18.1876L61.6512 18.4637L60.9615 18.4757C60.2956 18.4757 60.2718 18.4877 60.3431 18.7398C60.581 19.5201 61.5204 20.3485 62.5668 20.7086L63.304 20.9607L62.6619 21.3449C61.7106 21.8971 60.5928 22.2092 59.4751 22.2332C58.94 22.2452 58.5 22.2933 58.5 22.3293C58.5 22.4493 59.9507 23.1216 60.795 23.3857C63.3278 24.166 66.3363 23.8299 68.5956 22.4973C70.2009 21.549 71.8062 19.6642 72.5553 17.8395C72.9596 16.8671 73.3639 15.0903 73.3639 14.238C73.3639 13.6858 73.3996 13.6137 74.0655 12.9535C74.4579 12.5693 74.8265 12.1491 74.8979 12.0291C75.0168 11.801 75.0049 11.801 74.3985 12.0051C73.3877 12.3652 73.245 12.3172 73.7445 11.777C74.1131 11.3928 74.5531 10.6966 74.5531 10.4925C74.5531 10.4565 74.3747 10.5165 74.1725 10.6245C73.9585 10.7446 73.4828 10.9247 73.1261 11.0327L72.484 11.2368L71.9013 10.8406C71.5803 10.6245 71.1284 10.3844 70.8906 10.3124C70.2841 10.1443 69.3566 10.1683 68.8096 10.3604C67.3232 10.9006 66.3838 12.2932 66.4909 13.8178Z" fill="white"/>
<path opacity="0.1" fill-rule="evenodd" clip-rule="evenodd" d="M100 17C100 7.61116 107.611 0 117 0C126.389 0 134 7.61116 134 17C134 26.3888 126.389 34 117 34C107.611 34 100 26.3888 100 17Z" fill="white"/>
<path fill-rule="evenodd" clip-rule="evenodd" d="M124.084 11.1558C124.865 11.3699 125.479 12.0008 125.688 12.8019C126.067 14.2539 126.067 17.2834 126.067 17.2834C126.067 17.2834 126.067 20.3128 125.688 21.7649C125.479 22.566 124.865 23.1968 124.084 23.4111C122.67 23.8001 117 23.8001 117 23.8001C117 23.8001 111.33 23.8001 109.915 23.4111C109.135 23.1968 108.521 22.566 108.312 21.7649C107.933 20.3128 107.933 17.2834 107.933 17.2834C107.933 17.2834 107.933 14.2539 108.312 12.8019C108.521 12.0008 109.135 11.3699 109.915 11.1558C111.33 10.7667 117 10.7667 117 10.7667C117 10.7667 122.67 10.7667 124.084 11.1558ZM115.3 14.7333V20.4L119.833 17.5668L115.3 14.7333Z" fill="white"/>
<path opacity="0.1" fill-rule="evenodd" clip-rule="evenodd" d="M150 17C150 7.61116 157.611 0 167 0C176.389 0 184 7.61116 184 17C184 26.3888 176.389 34 167 34C157.611 34 150 26.3888 150 17Z" fill="white"/>
<path fill-rule="evenodd" clip-rule="evenodd" d="M167.001 7.93335C164.538 7.93335 164.229 7.94412 163.262 7.98813C162.297 8.03233 161.638 8.18514 161.062 8.40935C160.465 8.64093 159.96 8.95072 159.456 9.45487C158.951 9.95883 158.642 10.4647 158.409 11.0608C158.184 11.6375 158.031 12.2965 157.988 13.2614C157.945 14.2285 157.933 14.5377 157.933 17.0001C157.933 19.4625 157.944 19.7706 157.988 20.7377C158.033 21.7029 158.185 22.3618 158.409 22.9383C158.641 23.5346 158.951 24.0405 159.455 24.5444C159.959 25.0488 160.465 25.3593 161.061 25.5909C161.637 25.8151 162.297 25.9679 163.262 26.0121C164.229 26.0561 164.538 26.0669 167 26.0669C169.462 26.0669 169.77 26.0561 170.738 26.0121C171.703 25.9679 172.362 25.8151 172.939 25.5909C173.535 25.3593 174.04 25.0488 174.544 24.5444C175.049 24.0405 175.358 23.5346 175.591 22.9385C175.814 22.3618 175.967 21.7027 176.012 20.7379C176.055 19.7708 176.067 19.4625 176.067 17.0001C176.067 14.5377 176.055 14.2287 176.012 13.2616C175.967 12.2964 175.814 11.6375 175.591 11.061C175.358 10.4647 175.049 9.95883 174.544 9.45487C174.04 8.95053 173.536 8.64075 172.939 8.40935C172.361 8.18514 171.701 8.03233 170.736 7.98813C169.769 7.94412 169.461 7.93335 166.998 7.93335H167.001ZM166.187 9.56723C166.429 9.56685 166.698 9.56723 167.001 9.56723C169.422 9.56723 169.709 9.57592 170.665 9.61936C171.549 9.65979 172.028 9.8075 172.348 9.9316C172.771 10.0959 173.073 10.2924 173.39 10.6097C173.707 10.9271 173.904 11.2293 174.068 11.6524C174.192 11.9716 174.34 12.4514 174.381 13.3354C174.424 14.2912 174.433 14.5783 174.433 16.998C174.433 19.4177 174.424 19.7048 174.381 20.6606C174.34 21.5446 174.192 22.0244 174.068 22.3436C173.904 22.7667 173.707 23.068 173.39 23.3852C173.073 23.7025 172.771 23.8989 172.348 24.0633C172.029 24.188 171.549 24.3353 170.665 24.3757C169.709 24.4192 169.422 24.4286 167.001 24.4286C164.58 24.4286 164.293 24.4192 163.337 24.3757C162.453 24.3349 161.973 24.1872 161.654 24.0631C161.23 23.8988 160.928 23.7023 160.611 23.385C160.294 23.0676 160.097 22.7662 159.932 22.3429C159.808 22.0236 159.66 21.5439 159.62 20.6598C159.577 19.7041 159.568 19.4169 159.568 16.9957C159.568 14.5745 159.577 14.2889 159.62 13.3331C159.661 12.4491 159.808 11.9694 159.932 11.6498C160.097 11.2266 160.294 10.9244 160.611 10.6071C160.928 10.2897 161.23 10.0933 161.654 9.92858C161.973 9.80391 162.453 9.65658 163.337 9.61596C164.174 9.57819 164.498 9.56685 166.187 9.56496V9.56723ZM171.841 11.0727C171.24 11.0727 170.753 11.5595 170.753 12.1603C170.753 12.761 171.24 13.2483 171.841 13.2483C172.441 13.2483 172.929 12.761 172.929 12.1603C172.929 11.5597 172.441 11.0727 171.841 11.0727ZM167.001 12.3439C164.43 12.3439 162.345 14.4287 162.345 17.0001C162.345 19.5715 164.43 21.6553 167.001 21.6553C169.572 21.6553 171.656 19.5715 171.656 17.0001C171.656 14.4287 169.572 12.3439 167.001 12.3439ZM167.001 13.9778C168.67 13.9778 170.023 15.3309 170.023 17.0001C170.023 18.6691 168.67 20.0223 167.001 20.0223C165.332 20.0223 163.979 18.6691 163.979 17.0001C163.979 15.3309 165.332 13.9778 167.001 13.9778Z" fill="white"/>
</svg>
